<svg xmlns="http://www.w3.org/2000/svg" xml:space="preserve" viewBox="0 3.59 16.62 9.44"><path d="M16.614 5.208a.502.502 0 0 0-.502-.501H7.53l1.208.813a.922.922 0 0 1 .199.19h6.455l-4.984 3.61-2.437-1.754-.965.65 3.111 2.218c.17.123.412.121.582 0l4.912-3.502v5.09H5.205V9.428l-.202.137a.929.929 0 0 1-.515.156.93.93 0 0 1-.286-.051v2.854c0 .277.225.502.502.502h11.409a.502.502 0 0 0 .502-.502V5.958a.396.396 0 0 0-.008-.072.368.368 0 0 0 .008-.08v-.598h-.001z"/><path d="M4.308 8.799a.18.18 0 0 0 .281.148l3.735-2.514a.18.18 0 0 0 0-.299L4.59 3.621a.183.183 0 0 0-.185-.01.182.182 0 0 0-.096.16v1.454a13.268 13.268 0 0 1-1.479-.079C.888 4.916.368 3.75.347 3.7a.18.18 0 0 0-.166-.11c-.012 0-.024 0-.035.003A.181.181 0 0 0 0 3.77c0 2.944 3.495 3.571 4.307 3.677l.001 1.352z"/></svg>